<mxfile host="app.diagrams.net" agent="Mozilla/5.0 (Windows NT 10.0; Win64; x64) AppleWebKit/537.36 (KHTML, like Gecko) Chrome/141.0.0.0 Safari/537.36" version="28.2.7">
  <diagram name="Halaman-1" id="OoLg1zljFwhsjrDANIpU">
    <mxGraphModel dx="1426" dy="777" grid="1" gridSize="10" guides="1" tooltips="1" connect="1" arrows="1" fold="1" page="1" pageScale="1" pageWidth="827" pageHeight="1169" math="0" shadow="0">
      <root>
        <mxCell id="0" />
        <mxCell id="1" parent="0" />
        <mxCell id="MrgStX3IMGIpahsetE83-4" style="edgeStyle=orthogonalEdgeStyle;rounded=0;orthogonalLoop=1;jettySize=auto;html=1;exitX=1;exitY=0.5;exitDx=0;exitDy=0;entryX=0;entryY=0.5;entryDx=0;entryDy=0;" parent="1" source="MrgStX3IMGIpahsetE83-1" target="MrgStX3IMGIpahsetE83-2" edge="1">
          <mxGeometry relative="1" as="geometry" />
        </mxCell>
        <mxCell id="MrgStX3IMGIpahsetE83-1" value="Client" style="rounded=0;whiteSpace=wrap;html=1;" parent="1" vertex="1">
          <mxGeometry x="40" y="280" width="120" height="60" as="geometry" />
        </mxCell>
        <mxCell id="MrgStX3IMGIpahsetE83-5" style="edgeStyle=orthogonalEdgeStyle;rounded=0;orthogonalLoop=1;jettySize=auto;html=1;exitX=1;exitY=0.5;exitDx=0;exitDy=0;entryX=0;entryY=0.5;entryDx=0;entryDy=0;" parent="1" source="MrgStX3IMGIpahsetE83-2" target="MrgStX3IMGIpahsetE83-3" edge="1">
          <mxGeometry relative="1" as="geometry" />
        </mxCell>
        <mxCell id="MrgStX3IMGIpahsetE83-2" value="File Excel" style="rounded=0;whiteSpace=wrap;html=1;" parent="1" vertex="1">
          <mxGeometry x="200" y="280" width="120" height="60" as="geometry" />
        </mxCell>
        <mxCell id="MrgStX3IMGIpahsetE83-7" style="edgeStyle=orthogonalEdgeStyle;rounded=0;orthogonalLoop=1;jettySize=auto;html=1;exitX=1;exitY=0.5;exitDx=0;exitDy=0;entryX=0;entryY=0.5;entryDx=0;entryDy=0;" parent="1" source="MrgStX3IMGIpahsetE83-3" target="MrgStX3IMGIpahsetE83-6" edge="1">
          <mxGeometry relative="1" as="geometry" />
        </mxCell>
        <mxCell id="MrgStX3IMGIpahsetE83-3" value="ADK&lt;div&gt;(bagya)&lt;/div&gt;" style="rounded=0;whiteSpace=wrap;html=1;" parent="1" vertex="1">
          <mxGeometry x="360" y="280" width="120" height="60" as="geometry" />
        </mxCell>
        <mxCell id="MrgStX3IMGIpahsetE83-6" value="JSON" style="rounded=0;whiteSpace=wrap;html=1;" parent="1" vertex="1">
          <mxGeometry x="520" y="280" width="120" height="60" as="geometry" />
        </mxCell>
        <mxCell id="MrgStX3IMGIpahsetE83-8" value="" style="rounded=0;whiteSpace=wrap;html=1;" parent="1" vertex="1">
          <mxGeometry x="720" y="110" width="480" height="460" as="geometry" />
        </mxCell>
        <mxCell id="MrgStX3IMGIpahsetE83-9" value="Service Bus" style="text;html=1;align=center;verticalAlign=middle;whiteSpace=wrap;rounded=0;" parent="1" vertex="1">
          <mxGeometry x="720" y="110" width="480" height="30" as="geometry" />
        </mxCell>
        <mxCell id="MrgStX3IMGIpahsetE83-10" value="" style="rounded=0;whiteSpace=wrap;html=1;" parent="1" vertex="1">
          <mxGeometry x="720" y="140" width="160" height="410" as="geometry" />
        </mxCell>
        <mxCell id="MrgStX3IMGIpahsetE83-13" value="" style="rounded=0;whiteSpace=wrap;html=1;" parent="1" vertex="1">
          <mxGeometry x="880" y="140" width="160" height="410" as="geometry" />
        </mxCell>
        <mxCell id="MrgStX3IMGIpahsetE83-14" value="" style="rounded=0;whiteSpace=wrap;html=1;" parent="1" vertex="1">
          <mxGeometry x="1040" y="140" width="160" height="410" as="geometry" />
        </mxCell>
        <mxCell id="MrgStX3IMGIpahsetE83-15" value="Proxy Service" style="text;html=1;align=center;verticalAlign=middle;whiteSpace=wrap;rounded=0;" parent="1" vertex="1">
          <mxGeometry x="720" y="140" width="160" height="30" as="geometry" />
        </mxCell>
        <mxCell id="MrgStX3IMGIpahsetE83-16" value="Pipeline" style="text;html=1;align=center;verticalAlign=middle;whiteSpace=wrap;rounded=0;" parent="1" vertex="1">
          <mxGeometry x="880" y="140" width="160" height="30" as="geometry" />
        </mxCell>
        <mxCell id="MrgStX3IMGIpahsetE83-17" value="Bussiness Services" style="text;html=1;align=center;verticalAlign=middle;whiteSpace=wrap;rounded=0;" parent="1" vertex="1">
          <mxGeometry x="1040" y="140" width="160" height="30" as="geometry" />
        </mxCell>
        <mxCell id="MrgStX3IMGIpahsetE83-48" style="edgeStyle=orthogonalEdgeStyle;rounded=0;orthogonalLoop=1;jettySize=auto;html=1;exitX=1;exitY=0.5;exitDx=0;exitDy=0;entryX=0.5;entryY=0;entryDx=0;entryDy=0;" parent="1" source="MrgStX3IMGIpahsetE83-18" target="MrgStX3IMGIpahsetE83-42" edge="1">
          <mxGeometry relative="1" as="geometry">
            <Array as="points">
              <mxPoint x="870" y="240" />
              <mxPoint x="870" y="170" />
              <mxPoint x="960" y="170" />
            </Array>
          </mxGeometry>
        </mxCell>
        <mxCell id="MrgStX3IMGIpahsetE83-49" style="edgeStyle=orthogonalEdgeStyle;rounded=0;orthogonalLoop=1;jettySize=auto;html=1;exitX=0;exitY=0.5;exitDx=0;exitDy=0;entryX=1;entryY=0.5;entryDx=0;entryDy=0;" parent="1" source="MrgStX3IMGIpahsetE83-18" target="MrgStX3IMGIpahsetE83-21" edge="1">
          <mxGeometry relative="1" as="geometry">
            <Array as="points">
              <mxPoint x="700" y="240" />
              <mxPoint x="700" y="430" />
            </Array>
          </mxGeometry>
        </mxCell>
        <mxCell id="MrgStX3IMGIpahsetE83-18" value="Proxy Service&lt;br&gt;(xml)" style="rounded=0;whiteSpace=wrap;html=1;" parent="1" vertex="1">
          <mxGeometry x="740" y="210" width="120" height="60" as="geometry" />
        </mxCell>
        <mxCell id="MrgStX3IMGIpahsetE83-47" style="edgeStyle=orthogonalEdgeStyle;rounded=0;orthogonalLoop=1;jettySize=auto;html=1;exitX=1;exitY=0.5;exitDx=0;exitDy=0;entryX=0.5;entryY=0;entryDx=0;entryDy=0;" parent="1" source="MrgStX3IMGIpahsetE83-19" target="MrgStX3IMGIpahsetE83-42" edge="1">
          <mxGeometry relative="1" as="geometry">
            <Array as="points">
              <mxPoint x="870" y="390" />
              <mxPoint x="870" y="170" />
              <mxPoint x="960" y="170" />
            </Array>
          </mxGeometry>
        </mxCell>
        <mxCell id="MrgStX3IMGIpahsetE83-19" value="REST&lt;br&gt;(json)" style="rounded=0;whiteSpace=wrap;html=1;" parent="1" vertex="1">
          <mxGeometry x="740" y="360" width="120" height="60" as="geometry" />
        </mxCell>
        <mxCell id="MrgStX3IMGIpahsetE83-20" style="edgeStyle=orthogonalEdgeStyle;rounded=0;orthogonalLoop=1;jettySize=auto;html=1;exitX=1;exitY=0.5;exitDx=0;exitDy=0;entryX=0;entryY=0.5;entryDx=0;entryDy=0;startArrow=classic;startFill=1;" parent="1" source="MrgStX3IMGIpahsetE83-6" target="MrgStX3IMGIpahsetE83-19" edge="1">
          <mxGeometry relative="1" as="geometry" />
        </mxCell>
        <mxCell id="MrgStX3IMGIpahsetE83-22" style="edgeStyle=orthogonalEdgeStyle;rounded=0;orthogonalLoop=1;jettySize=auto;html=1;exitX=1;exitY=0.5;exitDx=0;exitDy=0;entryX=0;entryY=0.5;entryDx=0;entryDy=0;startArrow=classic;startFill=1;" parent="1" source="MrgStX3IMGIpahsetE83-21" target="MrgStX3IMGIpahsetE83-19" edge="1">
          <mxGeometry relative="1" as="geometry">
            <Array as="points">
              <mxPoint x="700" y="430" />
              <mxPoint x="700" y="390" />
            </Array>
          </mxGeometry>
        </mxCell>
        <mxCell id="MrgStX3IMGIpahsetE83-21" value="Span, Sakti, Sikri, ?, Ihsan" style="rounded=0;whiteSpace=wrap;html=1;" parent="1" vertex="1">
          <mxGeometry x="360" y="400" width="120" height="60" as="geometry" />
        </mxCell>
        <mxCell id="MrgStX3IMGIpahsetE83-24" style="edgeStyle=orthogonalEdgeStyle;rounded=0;orthogonalLoop=1;jettySize=auto;html=1;exitX=1;exitY=0.5;exitDx=0;exitDy=0;entryX=0;entryY=0.5;entryDx=0;entryDy=0;startArrow=classic;startFill=1;" parent="1" source="MrgStX3IMGIpahsetE83-23" target="MrgStX3IMGIpahsetE83-18" edge="1">
          <mxGeometry relative="1" as="geometry" />
        </mxCell>
        <mxCell id="MrgStX3IMGIpahsetE83-23" value="Pak&amp;nbsp;&lt;span style=&quot;background-color: transparent; color: light-dark(rgb(0, 0, 0), rgb(255, 255, 255));&quot;&gt;Syukri&lt;/span&gt;" style="rounded=0;whiteSpace=wrap;html=1;" parent="1" vertex="1">
          <mxGeometry x="350" y="115" width="140" height="60" as="geometry" />
        </mxCell>
        <mxCell id="MrgStX3IMGIpahsetE83-25" value="DB" style="rounded=0;whiteSpace=wrap;html=1;" parent="1" vertex="1">
          <mxGeometry x="1060" y="180" width="120" height="60" as="geometry" />
        </mxCell>
        <mxCell id="MrgStX3IMGIpahsetE83-26" value="SFTP/FTP" style="rounded=0;whiteSpace=wrap;html=1;" parent="1" vertex="1">
          <mxGeometry x="1060" y="270" width="120" height="60" as="geometry" />
        </mxCell>
        <mxCell id="MrgStX3IMGIpahsetE83-50" style="edgeStyle=orthogonalEdgeStyle;rounded=0;orthogonalLoop=1;jettySize=auto;html=1;exitX=1;exitY=0.5;exitDx=0;exitDy=0;entryX=0;entryY=0.5;entryDx=0;entryDy=0;" parent="1" source="MrgStX3IMGIpahsetE83-27" target="MrgStX3IMGIpahsetE83-37" edge="1">
          <mxGeometry relative="1" as="geometry" />
        </mxCell>
        <mxCell id="MrgStX3IMGIpahsetE83-27" value="Service External" style="rounded=0;whiteSpace=wrap;html=1;" parent="1" vertex="1">
          <mxGeometry x="1060" y="370" width="120" height="60" as="geometry" />
        </mxCell>
        <mxCell id="MrgStX3IMGIpahsetE83-28" value="" style="rounded=0;whiteSpace=wrap;html=1;" parent="1" vertex="1">
          <mxGeometry x="1390" y="115" width="480" height="460" as="geometry" />
        </mxCell>
        <mxCell id="MrgStX3IMGIpahsetE83-29" value="Service Bus" style="text;html=1;align=center;verticalAlign=middle;whiteSpace=wrap;rounded=0;" parent="1" vertex="1">
          <mxGeometry x="1390" y="115" width="480" height="30" as="geometry" />
        </mxCell>
        <mxCell id="MrgStX3IMGIpahsetE83-30" value="" style="rounded=0;whiteSpace=wrap;html=1;" parent="1" vertex="1">
          <mxGeometry x="1390" y="145" width="160" height="410" as="geometry" />
        </mxCell>
        <mxCell id="MrgStX3IMGIpahsetE83-31" value="" style="rounded=0;whiteSpace=wrap;html=1;" parent="1" vertex="1">
          <mxGeometry x="1550" y="145" width="160" height="410" as="geometry" />
        </mxCell>
        <mxCell id="MrgStX3IMGIpahsetE83-32" value="" style="rounded=0;whiteSpace=wrap;html=1;" parent="1" vertex="1">
          <mxGeometry x="1710" y="145" width="160" height="410" as="geometry" />
        </mxCell>
        <mxCell id="MrgStX3IMGIpahsetE83-33" value="Proxy Service" style="text;html=1;align=center;verticalAlign=middle;whiteSpace=wrap;rounded=0;" parent="1" vertex="1">
          <mxGeometry x="1390" y="145" width="160" height="30" as="geometry" />
        </mxCell>
        <mxCell id="MrgStX3IMGIpahsetE83-34" value="Pipeline" style="text;html=1;align=center;verticalAlign=middle;whiteSpace=wrap;rounded=0;" parent="1" vertex="1">
          <mxGeometry x="1550" y="145" width="160" height="30" as="geometry" />
        </mxCell>
        <mxCell id="MrgStX3IMGIpahsetE83-35" value="Bussiness Services" style="text;html=1;align=center;verticalAlign=middle;whiteSpace=wrap;rounded=0;" parent="1" vertex="1">
          <mxGeometry x="1710" y="145" width="160" height="30" as="geometry" />
        </mxCell>
        <mxCell id="MrgStX3IMGIpahsetE83-36" value="Proxy Service&lt;br&gt;(xml)" style="rounded=0;whiteSpace=wrap;html=1;" parent="1" vertex="1">
          <mxGeometry x="1410" y="215" width="120" height="60" as="geometry" />
        </mxCell>
        <mxCell id="MrgStX3IMGIpahsetE83-37" value="REST&lt;br&gt;(json)" style="rounded=0;whiteSpace=wrap;html=1;" parent="1" vertex="1">
          <mxGeometry x="1410" y="365" width="120" height="60" as="geometry" />
        </mxCell>
        <mxCell id="MrgStX3IMGIpahsetE83-38" value="DB" style="rounded=0;whiteSpace=wrap;html=1;" parent="1" vertex="1">
          <mxGeometry x="1730" y="185" width="120" height="60" as="geometry" />
        </mxCell>
        <mxCell id="MrgStX3IMGIpahsetE83-39" value="SFTP/FTP" style="rounded=0;whiteSpace=wrap;html=1;" parent="1" vertex="1">
          <mxGeometry x="1730" y="275" width="120" height="60" as="geometry" />
        </mxCell>
        <mxCell id="MrgStX3IMGIpahsetE83-40" value="Service External" style="rounded=0;whiteSpace=wrap;html=1;" parent="1" vertex="1">
          <mxGeometry x="1730" y="375" width="120" height="60" as="geometry" />
        </mxCell>
        <mxCell id="MrgStX3IMGIpahsetE83-41" style="edgeStyle=orthogonalEdgeStyle;rounded=0;orthogonalLoop=1;jettySize=auto;html=1;exitX=1;exitY=0.5;exitDx=0;exitDy=0;entryX=0;entryY=0.5;entryDx=0;entryDy=0;" parent="1" source="MrgStX3IMGIpahsetE83-27" target="MrgStX3IMGIpahsetE83-36" edge="1">
          <mxGeometry relative="1" as="geometry" />
        </mxCell>
        <mxCell id="MrgStX3IMGIpahsetE83-42" value="validasi" style="rounded=0;whiteSpace=wrap;html=1;" parent="1" vertex="1">
          <mxGeometry x="900" y="190" width="120" height="60" as="geometry" />
        </mxCell>
        <mxCell id="MrgStX3IMGIpahsetE83-46" style="edgeStyle=orthogonalEdgeStyle;rounded=0;orthogonalLoop=1;jettySize=auto;html=1;exitX=1;exitY=0.5;exitDx=0;exitDy=0;entryX=0;entryY=0.5;entryDx=0;entryDy=0;" parent="1" source="MrgStX3IMGIpahsetE83-43" target="MrgStX3IMGIpahsetE83-25" edge="1">
          <mxGeometry relative="1" as="geometry">
            <Array as="points">
              <mxPoint x="1050" y="290" />
              <mxPoint x="1050" y="210" />
            </Array>
          </mxGeometry>
        </mxCell>
        <mxCell id="MrgStX3IMGIpahsetE83-43" value="insert ke db" style="rounded=0;whiteSpace=wrap;html=1;" parent="1" vertex="1">
          <mxGeometry x="900" y="260" width="120" height="60" as="geometry" />
        </mxCell>
        <mxCell id="MrgStX3IMGIpahsetE83-45" style="edgeStyle=orthogonalEdgeStyle;rounded=0;orthogonalLoop=1;jettySize=auto;html=1;exitX=1;exitY=0.5;exitDx=0;exitDy=0;entryX=0;entryY=0.5;entryDx=0;entryDy=0;" parent="1" source="MrgStX3IMGIpahsetE83-44" target="MrgStX3IMGIpahsetE83-26" edge="1">
          <mxGeometry relative="1" as="geometry">
            <Array as="points">
              <mxPoint x="1050" y="365" />
              <mxPoint x="1050" y="300" />
            </Array>
          </mxGeometry>
        </mxCell>
        <mxCell id="MrgStX3IMGIpahsetE83-44" value="download file" style="rounded=0;whiteSpace=wrap;html=1;" parent="1" vertex="1">
          <mxGeometry x="900" y="335" width="120" height="60" as="geometry" />
        </mxCell>
      </root>
    </mxGraphModel>
  </diagram>
</mxfile>
